<svg xmlns="http://www.w3.org/2000/svg" width="896" height="747.97143" viewBox="0 0 896 747.97143" role="img" aria-labelledby="empty-cart-title">
  <title id="empty-cart-title">empty_cart</title>
  <style>
    #girl path[fill="#a0616a"] { fill: #f2c6b6; }
    #girl path:nth-of-type(1),
    #girl path:nth-of-type(3) { fill: #5b3a32; }
    #girl path:nth-of-type(5),
    #girl path:nth-of-type(14) { fill: #d97693; }
    #girl path:nth-of-type(6),
    #girl path:nth-of-type(7),
    #girl path:nth-of-type(8) { fill: #f7e8ee; }
  </style>

  <g fill="#f2f2f2">
    <rect x="413.2485" y="35.90779" width="140" height="2"/>
    <rect x="513.2485" y="37.40779" width="2" height="18.5"/>
    <rect x="452.2485" y="37.40779" width="2" height="18.5"/>
    <rect x="484.2485" y="131.90779" width="140" height="2"/>
    <rect x="522.2485" y="113.90779" width="2" height="18.5"/>
    <rect x="583.2485" y="113.90779" width="2" height="18.5"/>
    <rect x="670.2485" y="176.90779" width="140" height="2"/>
    <rect x="708.2485" y="158.90779" width="2" height="18.5"/>
    <rect x="769.2485" y="158.90779" width="2" height="18.5"/>
    <rect x="417.2485" y="319.90779" width="140" height="2"/>
    <rect x="455.2485" y="301.90779" width="2" height="18.5"/>
    <rect x="516.2485" y="301.90779" width="2" height="18.5"/>
  </g>

  <g id="plants">
    <path d="M41.634 712.738c12.428 23.049 38.806 32.944 38.806 32.944s6.227-27.476-6.201-50.525-38.806-32.943-38.806-32.943-6.227 27.475 6.201 50.524Z" fill="#2f2e41"/>
    <path d="M50.177 705.155c22.438 13.5 31.08 40.314 31.08 40.314s-27.738 4.927-50.177-8.573S0 696.582 0 696.582s27.738-4.926 50.177 8.573Z" fill="#78555e"/>
  </g>

  <g id="cart">
    <polygon points="362.06 702.184 125.274 702.184 125.274 700.481 360.356 700.481 360.356 617.861 145.18 617.861 134.727 596.084 136.263 595.347 146.252 616.157 362.06 616.157 362.06 702.184" fill="#2f2e41"/>
    <circle cx="156.78851" cy="726.03301" r="17.88673" fill="#3f3d56"/>
    <circle cx="333.10053" cy="726.03301" r="17.88673" fill="#3f3d56"/>
    <circle cx="540.92726" cy="346.153" r="11.07274" fill="#3f3d56"/>
    <path d="M387.385 589.753H121.237L63.648 401.517h383.044l-.349 1.108-58.958 187.128Zm-264.888-1.704h263.639l58.234-184.829H65.951l56.546 184.829Z" fill="#2f2e41"/>
    <polygon points="366.61 579.958 132.842 579.958 82.26 413.015 418.701 413.015 418.395 413.998 366.61 579.958" fill="#f2f2f2"/>
    <polygon points="451.465 384.7 449.818 384.263 461.059 341.894 526.448 341.894 526.448 343.598 462.37 343.598 451.465 384.7" fill="#2f2e41"/>
    <rect x="82.2584" y="458.58385" width="345.2931" height="1.7035" fill="#2f2e41"/>
    <rect x="101.45894" y="521.34377" width="306.31852" height="1.7035" fill="#2f2e41"/>
    <rect x="254.31376" y="402.36843" width="1.7035" height="186.53301" fill="#2f2e41"/>
    <rect x="233.55745" y="494.78303" width="186.92877" height="1.70379" transform="rotate(-86.24919 327.021 495.635)" fill="#2f2e41"/>
    <rect x="182.45728" y="402.17054" width="1.70379" height="186.92877" transform="rotate(-3.729 183.309 495.635)" fill="#2f2e41"/>
  </g>

  <g id="girl">
    <path d="M585 82c-18 7-29 25-27 48 2 17 11 32 25 39 14 7 32 5 44-6 11-10 16-27 13-43-5-25-31-47-55-38Z" fill="#2f2e41"/>
    <path d="M565 126c-7 23-6 52 5 68 9 13 26 17 40 10 18-9 24-30 18-54-5-22-21-38-36-40-13-2-23 4-27 16Z" fill="#a0616a"/>
    <path d="M566 105c18-20 52-18 67 3 10 13 10 30 4 44-18-18-45-24-74-16-6-10-5-21 3-31Z" fill="#2f2e41"/>
    <path d="M568 171c9 19 35 22 51 7l12 43-72 4 9-54Z" fill="#a0616a"/>
    <path d="M534 222c18-26 43-39 76-37 32 2 59 21 71 50l-33 153h-97l-17-166Z" fill="#78555e"/>
    <path d="M553 244c21 31 65 40 92 6l24 139H530l23-145Z" fill="#3f3d56"/>
    <path d="M529 231c-15 25-23 51-27 77l38 6 22-88-33 5Z" fill="#3f3d56"/>
    <path d="M656 229l33 7c18 25 25 49 29 77l-38 6-24-90Z" fill="#3f3d56"/>
    <path d="M516 258c-19 47-25 88-17 123 2 10 14 15 23 9 7-5 9-14 6-22-6-20 2-60 22-111l-34 1Z" fill="#a0616a"/>
    <path d="M679 254c23 48 33 88 27 124-2 11-14 17-24 10-7-5-9-14-6-22 4-21-8-60-32-110l35-2Z" fill="#a0616a"/>
    <path d="M532 376h141l-27 132h-88l-26-132Z" fill="#78555e"/>
    <path d="M563 500h34l-8 206h-34l8-206Z" fill="#2f2e41"/>
    <path d="M615 500h34l33 206h-35l-32-206Z" fill="#2f2e41"/>
    <path d="M549 704h47c5 13 1 22-12 24h-46c-7-10-4-18 11-24Z" fill="#2f2e41"/>
    <path d="M645 704h47c9 10 9 18 0 24h-46c-12-3-13-11-1-24Z" fill="#2f2e41"/>
    <rect x="543" y="295" width="113" height="103" rx="5" fill="#f2f2f2"/>
    <path d="M543 318h113v2H543zM543 343h113v2H543zM543 367h113v2H543z" fill="#d3c3c5"/>
    <path d="M517 375c38 21 76 26 116 16 7-2 10-10 7-16-3-6-10-9-16-7-32 8-63 3-95-15-8-4-17 0-19 8-1 6 1 11 7 14Z" fill="#a0616a"/>
    <path d="M671 355c-15 19-31 32-49 40-8 4-12 12-8 20 4 7 12 10 20 7 22-10 42-27 59-49 5-7 3-16-4-21-6-4-14-3-18 3Z" fill="#a0616a"/>
  </g>

  <rect y="745" width="896" height="2" fill="#2f2e41"/>
</svg>
